<svg id="Accelerate" xmlns="http://www.w3.org/2000/svg" width="785.033" height="112.726" viewBox="0 0 785.033 112.726">
  <path id="Path_6130" data-name="Path 6130" d="M480.954,881.782h7.776l-31.913-69.82h-7.279l-31.92,69.82H425.3l8.381-18.654h38.9Zm-44.581-24.641,16.756-37.5,16.756,37.5Zm98.147,25.239c10.273,0,19.45-3.49,25.634-10.273l-4.687-4.687c-5.687,5.884-12.674,8.375-20.647,8.375-16.858,0-29.525-12.368-29.525-28.926s12.667-28.927,29.525-28.927c7.974,0,14.96,2.5,20.647,8.279l4.687-4.688c-6.184-6.782-15.361-10.171-25.538-10.171-21.048,0-36.607,15.062-36.607,35.506S513.574,882.381,534.52,882.381Zm75.106,0c10.273,0,19.45-3.49,25.634-10.273l-4.687-4.687c-5.687,5.884-12.667,8.375-20.647,8.375-16.858,0-29.525-12.368-29.525-28.926s12.667-28.927,29.525-28.927c7.98,0,14.96,2.5,20.647,8.279l4.688-4.688c-6.184-6.782-15.361-10.171-25.538-10.171-21.048,0-36.607,15.062-36.607,35.506s15.565,35.512,36.511,35.512Zm53.662-6.98V849.467h36.1v-6.286h-36.1V818.344H703.78v-6.382H655.907v69.82h49.37V875.4Zm64.234,6.382H774V875.4H734.9V811.963h-7.381Zm71.017-6.382V849.467h36.1v-6.286h-36.1V818.344h40.492v-6.382H791.158v69.82h49.37V875.4Zm119.992,6.382-17.055-23.94c10.171-3.292,15.953-10.973,15.953-21.94,0-14.966-10.769-23.94-28.525-23.94H862.774v69.82h7.381V859.638H888.9a51.083,51.083,0,0,0,5.586-.3l15.96,22.443Zm-29.824-28.43H870.155V818.344h18.552c13.966,0,21.348,6.381,21.348,17.558C910.048,846.869,902.673,853.352,888.707,853.352Zm103.236,28.43h7.776l-31.92-69.82H960.52l-31.913,69.82h7.681l8.374-18.654h38.9Zm-44.587-24.641,16.756-37.5,16.756,37.5Zm78.9,24.641h7.381V818.344h24.532v-6.382h-56.446v6.382h24.532Zm55.961-6.382V849.467h36.1v-6.286h-36.111V818.344h40.5v-6.382h-47.879v69.82H1124.2V875.4Z" transform="translate(-417.617 -769.655)" fill="#fff"/>
  <path id="Path_5977" data-name="Path 5977" d="M653.189,844.893l-69.3,16.081,20.634-16.081-84.557-40.078Z" transform="translate(131.844 -804.815)" fill="#e10000"/>
  <path id="Path_5977-2" data-name="Path 5977-2" d="M653.189,844.893H604.519l-84.557-40.078Z" transform="translate(131.844 -804.815)" fill="#ff4013"/>
</svg>
