<svg id="Group_257" data-name="Group 257" xmlns="http://www.w3.org/2000/svg" width="133.193" height="39.347" viewBox="0 0 133.193 39.347">
  <g id="Group_19" data-name="Group 19" transform="translate(0 9.316)">
    <path id="Path_35" data-name="Path 35" d="M118.829,127.458a11.3,11.3,0,0,1,15.411-16.53h4.751c-.048-.075-.1-.149-.146-.224a14.976,14.976,0,1,0-20.788,20.787,14.967,14.967,0,0,0,20.788-4.044c.088-.131.178-.267.266-.408h-4.442A11.3,11.3,0,0,1,118.829,127.458Z" transform="translate(-111.449 -104.095)" fill="#fff"/>
    <path id="Path_36" data-name="Path 36" d="M510.377,133.931a11.662,11.662,0,1,0-1.074,11.052A11.662,11.662,0,0,0,510.377,133.931Zm-10.764,12.637a8.127,8.127,0,1,1,8.127-8.127,8.127,8.127,0,0,1-8.127,8.127Z" transform="translate(-378.098 -120.174)" fill="#fff"/>
    <path id="Path_37" data-name="Path 37" d="M260.327,126.852a11.221,11.221,0,0,0-11.5,10.939q-.009.364,0,.727c0,6.826,4.923,11.709,12.315,11.709a11.493,11.493,0,0,0,9.031-3.716l-2.286-2.679a8.551,8.551,0,0,1-6.611,2.766c-4.537,0-7.778-2.679-8.3-6.7H271.56c.044-.39.087-.909.087-1.253C271.652,131.605,266.94,126.852,260.327,126.852Zm-7.343,10.071a7.385,7.385,0,0,1,14.688,0Z" transform="translate(-208.74 -120.209)" fill="#fff"/>
    <path id="Path_38" data-name="Path 38" d="M221.023,126.86c-4.017,0-6.869,1.383-8.339,4.062v-3.845h-3.976v22.9h4.148V138.569c0-5.012,2.765-7.734,7.215-7.734a7.3,7.3,0,0,1,.951.044Z" transform="translate(-180.328 -120.217)" fill="#fff"/>
    <path id="Path_39" data-name="Path 39" d="M428.808,130.979c-2.286,0-3.013-1.383-3.013-3.844v-12.4h6.567v-3.409H425.79v-6.714h-4.148v6.714h-1.425v3.413h1.425V127.31c0,4.624,2.068,7.169,6.691,7.169a6.313,6.313,0,0,0,4.444-1.6l-1.3-2.976A3.739,3.739,0,0,1,428.808,130.979Z" transform="translate(-330.117 -104.461)" fill="#fff"/>
    <rect id="Rectangle_9" data-name="Rectangle 9" width="4.148" height="22.899" transform="translate(104.186 6.857)" fill="#fff"/>
    <path id="Path_40" data-name="Path 40" d="M351.29,130.22a11.669,11.669,0,1,0-.012,16.5l.012-.012v3.218h3.581v-22.9H351.29Zm-8.255,16.346a8.127,8.127,0,1,1,8.127-8.127,8.127,8.127,0,0,1-8.127,8.127Z" transform="translate(-267.192 -120.173)" fill="#fff"/>
  </g>
  <path id="Path_5977" data-name="Path 5977" d="M432.8,81.458l-16.05,3.725,4.779-3.725-19.582-9.287Z" transform="translate(-317.18 -72.171)" fill="#bc2b09"/>
  <path id="Path_5977-2" data-name="Path 5977-2" d="M432.8,81.458H421.523l-19.582-9.287Z" transform="translate(-317.174 -72.171)" fill="#ff4013"/>
</svg>
