<svg xmlns="http://www.w3.org/2000/svg" width="1320.406" height="191.8" viewBox="0 0 1320.406 191.8">
  <path id="Tel_Aviv" data-name="Tel Aviv" d="M60.006,0h54.252V-148.782h58.636V-191.8H1.1v43.018h58.91ZM246.874-41.922V-76.994h85.214v-40.552H246.874v-32.332H343.6V-191.8H193.17V0H347.158V-41.922ZM377.3,0H523.066V-43.018H431.55V-191.8H377.3Zm390.45,0h56.444l-84.94-191.8h-53.43L601.156,0H656.5l15.07-37.264h81.1ZM687.466-77.268l24.66-61.376,24.66,61.376ZM969.686-191.8,916.53-66.856,864.47-191.8H805.834L887.76,0h53.43l82.2-191.8ZM1034.624,0h54.252V-191.8h-54.252ZM1267.8-191.8,1214.642-66.856,1162.582-191.8h-58.636L1185.872,0h53.43l82.2-191.8Z" transform="translate(-1.096 191.8)" fill="#fff" opacity="0.8"/>
</svg>
